HIERARCHY
ROOT Hips
{
	OFFSET 0.00000 0.00000 0.00000
	CHANNELS 6 Xposition Yposition Zposition Zrotation Yrotation Xrotation 
	JOINT LHipJoint
	{
		OFFSET 0 0 0
		CHANNELS 3 Zrotation Yrotation Xrotation
		JOINT LeftUpLeg
		{
			OFFSET 1.38691 -1.89057 0.78360
			CHANNELS 3 Zrotation Yrotation Xrotation
			JOINT LeftLeg
			{
				OFFSET 2.59731 -7.13606 0.00000
				CHANNELS 3 Zrotation Yrotation Xrotation
				JOINT LeftFoot
				{
					OFFSET 2.70078 -7.42033 0.00000
					CHANNELS 3 Zrotation Yrotation Xrotation
					JOINT LeftToeBase
					{
						OFFSET 0.16751 -0.46024 2.68862
						CHANNELS 3 Zrotation Yrotation Xrotation
						End Site
						{
							OFFSET 0.00000 -0.00000 1.37057
						}
					}
				}
			}
		}
	}
	JOINT RHipJoint
	{
		OFFSET 0 0 0
		CHANNELS 3 Zrotation Yrotation Xrotation
		JOINT RightUpLeg
		{
			OFFSET -1.38190 -1.89056 0.78359
			CHANNELS 3 Zrotation Yrotation Xrotation
			JOINT RightLeg
			{
				OFFSET -2.57785 -7.08258 0.00000
				CHANNELS 3 Zrotation Yrotation Xrotation
				JOINT RightFoot
				{
					OFFSET -2.77908 -7.63547 0.00000
					CHANNELS 3 Zrotation Yrotation Xrotation
					JOINT RightToeBase
					{
						OFFSET -0.17921 -0.49237 2.62360
						CHANNELS 3 Zrotation Yrotation Xrotation
						End Site
						{
							OFFSET -0.00000 -0.00000 1.34085
						}
					}
				}
			}
		}
	}
	JOINT LowerBack
	{
		OFFSET 0 0 0
		CHANNELS 3 Zrotation Yrotation Xrotation
		JOINT Spine
		{
			OFFSET -0.10749 2.04110 -0.22549
			CHANNELS 3 Zrotation Yrotation Xrotation
			JOINT Spine1
			{
				OFFSET 0.01213 2.05840 0.00691
				CHANNELS 3 Zrotation Yrotation Xrotation
				JOINT Neck
				{
					OFFSET 0 0 0
					CHANNELS 3 Zrotation Yrotation Xrotation
					JOINT Neck1
					{
						OFFSET 0.06585 1.81215 0.35449
						CHANNELS 3 Zrotation Yrotation Xrotation
						JOINT Head
						{
							OFFSET -0.04315 1.87555 -0.27307
							CHANNELS 3 Zrotation Yrotation Xrotation
							End Site
							{
								OFFSET -0.01775 1.89740 -0.13294
							}
						}
					}
				}
				JOINT LeftShoulder
				{
					OFFSET 0 0 0
					CHANNELS 3 Zrotation Yrotation Xrotation
					JOINT LeftArm
					{
						OFFSET 2.98012 1.63606 0.28888
						CHANNELS 3 Zrotation Yrotation Xrotation
						JOINT LeftForeArm
						{
							OFFSET 5.59864 -0.00000 -0.00000
							CHANNELS 3 Zrotation Yrotation Xrotation
							JOINT LeftHand
							{
								OFFSET 3.59542 -0.00000 -0.00000
								CHANNELS 3 Zrotation Yrotation Xrotation
								JOINT LeftFingerBase
								{
									OFFSET 0 0 0
									CHANNELS 3 Zrotation Yrotation Xrotation
									JOINT LeftHandIndex1
									{
										OFFSET 0.57201 -0.00000 -0.00000
										CHANNELS 3 Zrotation Yrotation Xrotation
										End Site
										{
											OFFSET 0.46117 -0.00000 -0.00000
										}
									}
								}
								JOINT LThumb
								{
									OFFSET 0 0 0
									CHANNELS 3 Zrotation Yrotation Xrotation
									End Site
									{
										OFFSET 0.46821 -0.00000 0.46821
									}
								}
							}
						}
					}
				}
				JOINT RightShoulder
				{
					OFFSET 0 0 0
					CHANNELS 3 Zrotation Yrotation Xrotation
					JOINT RightArm
					{
						OFFSET -3.08694 1.53706 0.36335
						CHANNELS 3 Zrotation Yrotation Xrotation
						JOINT RightForeArm
						{
							OFFSET -5.80940 -0.00000 -0.00000
							CHANNELS 3 Zrotation Yrotation Xrotation
							JOINT RightHand
							{
								OFFSET -3.66953 -0.00000 -0.00000
								CHANNELS 3 Zrotation Yrotation Xrotation
								JOINT RightFingerBase
								{
									OFFSET 0 0 0
									CHANNELS 3 Zrotation Yrotation Xrotation
									JOINT RightHandIndex1
									{
										OFFSET -0.57843 -0.00000 -0.00000
										CHANNELS 3 Zrotation Yrotation Xrotation
										End Site
										{
											OFFSET -0.46635 -0.00000 -0.00000
										}
									}
								}
								JOINT RThumb
								{
									OFFSET 0 0 0
									CHANNELS 3 Zrotation Yrotation Xrotation
									End Site
									{
										OFFSET -0.47347 -0.00000 0.47347
									}
								}
							}
						}
					}
				}
			}
		}
	}
}
MOTION
Frames: 14
Frame Time: .0083333
5.2246 17.6366 13.7441 4.7300 42.0328 5.5187 0.0000 0.0000 0.0000 -3.0824 -11.2896 4.9541 12.1975 18.4729 66.6136 0.1877 -9.4757 -9.5472 0.5808 -4.8798 -13.5661 0.0000 0.0000 0.0000 14.2813 17.9479 -34.2712 -15.6321 -19.5363 77.1335 -5.3220 20.5497 -42.5998 -0.4761 4.4250 -12.2755 -1.8372 -3.6637 11.4621 -1.6302 -5.2482 -0.9383 0.2333 -2.5148 -7.4107 -0.7726 -1.5067 -18.1817 -2.1849 -0.4217 42.1711 -0.9515 -0.4180 19.2594 0.0000 0.0000 0.0000 -75.9313 -36.1221 49.5619 94.7856 -59.9133 -64.1433 -0.0000 0.0000 -25.7701 24.8243 10.7037 4.9105 -7.1250 0.0000 -0.0000 -2.0143 41.7357 0.1623 0.0000 0.0000 0.0000 65.7310 3.4779 45.4317 -29.3537 40.3329 -10.9889 0.0000 -0.0000 -11.7947 -30.9100 -0.5230 0.3131 7.1250 -0.0000 -0.0000 -3.4444 -30.5795 -1.2150
5.1927 17.7017 14.1186 4.9507 42.9487 5.6140 0.0000 0.0000 0.0000 -3.3380 -10.9328 2.2722 13.3914 18.9189 70.3367 0.2567 -11.7393 -11.4807 0.6606 -5.1984 -14.4753 0.0000 0.0000 0.0000 14.7844 17.3176 -33.3952 -15.3376 -19.4706 76.2517 -5.4944 20.1476 -43.2483 -0.4884 4.4809 -12.4336 -1.9843 -3.7350 11.4199 -1.7358 -5.3696 -0.9479 0.2223 -2.5704 -7.3931 -0.8205 -1.6179 -18.0588 -2.1780 -0.5695 42.1609 -0.9674 -0.4786 19.2160 -0.0000 -0.0000 0.0000 -76.5003 -36.1612 50.1712 95.1567 -59.8993 -64.4644 -0.0000 0.0000 -25.4207 25.1572 10.5397 4.9101 -7.1250 0.0000 -0.0000 -1.6993 41.5894 0.1430 -0.0000 -0.0000 0.0000 65.5683 3.1202 45.2201 -29.8589 40.7722 -11.3174 0.0000 -0.0000 -12.0755 -31.1061 -0.4887 0.2949 7.1250 -0.0000 -0.0000 -3.5984 -30.5398 -1.2730
5.1622 17.7675 14.4927 5.2361 43.9093 5.7774 0.0000 0.0000 0.0000 -3.6896 -10.4794 -0.3847 14.5086 19.2611 73.7520 0.4079 -13.1439 -13.7170 0.8645 -5.9287 -16.5778 0.0000 0.0000 0.0000 15.1943 16.5981 -32.6023 -15.0515 -19.4025 75.3918 -5.6505 19.7308 -43.8300 -0.4980 4.5243 -12.5567 -2.1662 -3.7607 11.3381 -1.8691 -5.4352 -0.9541 0.1888 -2.5985 -7.3493 -0.9305 -1.7757 -17.9214 -2.0799 -0.8045 42.1569 -0.9453 -0.5696 19.1723 0.0000 -0.0000 0.0000 -77.1887 -36.1960 50.9731 95.4745 -59.8865 -64.7392 -0.0000 0.0000 -24.9965 25.0928 10.4366 4.8487 -7.1250 0.0000 -0.0000 -1.7457 41.4700 0.1521 0.0000 -0.0000 0.0000 65.5238 2.6429 44.6978 -30.3786 41.2157 -11.6583 0.0000 -0.0000 -12.2762 -31.2441 -0.4415 0.2679 7.1250 -0.0000 -0.0000 -3.7058 -30.4850 -1.3160
5.1293 17.8276 14.8639 5.5627 44.9130 5.9929 0.0000 0.0000 0.0000 -4.1309 -10.0190 -2.9278 15.5379 19.5158 76.8517 0.5813 -14.2665 -15.7815 0.9249 -6.1271 -17.1535 0.0000 0.0000 0.0000 15.5202 15.8075 -31.9150 -14.7778 -19.3332 74.5664 -5.7719 19.6406 -44.3035 -0.4707 4.4003 -12.2057 -2.4829 -3.7904 11.2781 -1.9213 -5.5193 -0.9730 0.3197 -2.6282 -7.3103 -1.0786 -1.9492 -17.7670 -2.0483 -1.0216 42.1164 -0.9437 -0.6698 19.1024 -0.0000 -0.0000 0.0000 -78.0171 -36.1393 51.7001 95.9660 -59.8651 -65.1644 -0.0000 0.0000 -24.7209 25.1242 10.3630 4.8218 -7.1250 0.0000 -0.0000 -1.7099 41.3924 0.1522 -0.0000 -0.0000 0.0000 65.3223 2.1332 44.2718 -30.9435 41.6885 -12.0322 0.0000 -0.0000 -12.5890 -31.3808 -0.3962 0.2416 7.1250 -0.0000 -0.0000 -3.8121 -30.4320 -1.3587
5.1006 17.8852 15.2382 5.7332 45.9005 6.0550 0.0000 0.0000 0.0000 -4.5309 -9.3764 -5.2865 16.4587 19.6966 79.5954 0.8381 -14.7491 -18.0660 1.0189 -6.4217 -18.0131 0.0000 0.0000 0.0000 15.9850 15.0079 -31.2057 -14.5079 -19.2609 73.7499 -5.9115 19.2393 -44.8206 -0.4910 4.4930 -12.4678 -2.6689 -3.8155 11.1968 -1.9761 -5.5775 -0.9680 0.3685 -2.6515 -7.2458 -1.1329 -2.1073 -17.6018 -2.0628 -1.2296 42.1035 -0.9796 -0.7572 19.0454 0.0000 -0.0000 0.0000 -78.6967 -35.9559 52.4343 96.3788 -59.8457 -65.5213 -0.0000 0.0000 -24.5457 25.2796 10.1027 4.7356 -7.1250 0.0000 -0.0000 -1.5450 41.1220 0.1478 0.0000 -0.0000 0.0000 65.2308 1.5901 43.7582 -31.4880 42.1352 -12.3960 0.0000 -0.0000 -12.7921 -31.6059 -0.4270 0.2627 7.1250 -0.0000 -0.0000 -3.9915 -30.4681 -1.4195
5.0725 17.9407 15.6152 5.8773 46.8420 6.0943 0.0000 0.0000 0.0000 -4.9594 -8.5709 -7.4921 17.2637 19.8195 81.9765 1.1408 -14.8565 -20.3522 1.1070 -6.6849 -18.7852 0.0000 0.0000 0.0000 16.4609 14.3273 -30.4916 -14.2459 -19.1869 72.9542 -6.0772 18.7655 -45.4360 -0.5188 4.6165 -12.8178 -2.7796 -3.8257 11.1224 -2.0894 -5.6108 -0.9833 0.3115 -2.6659 -7.2209 -1.1821 -2.2902 -17.4222 -2.0163 -1.5047 42.1289 -1.0008 -0.8613 19.0084 0.0000 0.0000 0.0000 -79.3189 -35.6531 53.1606 96.8795 -59.8204 -65.9542 -0.0000 0.0000 -24.4355 25.0897 10.1704 4.7262 -7.1250 0.0000 -0.0000 -1.7204 41.1781 0.1622 0.0000 0.0000 0.0000 65.3487 0.9113 43.0658 -32.0565 42.5921 -12.7790 0.0000 -0.0000 -12.9238 -31.6097 -0.3819 0.2350 7.1250 -0.0000 -0.0000 -3.9924 -30.4153 -1.4248
5.0469 17.9930 15.9893 5.9855 47.8308 6.0784 0.0000 0.0000 0.0000 -5.4296 -7.7172 -9.5088 17.9454 19.8985 83.9828 1.4630 -14.8515 -22.5619 1.1499 -6.8089 -19.1503 0.0000 0.0000 0.0000 16.9092 13.5014 -29.8423 -13.9872 -19.1101 72.1652 -6.1880 18.4074 -45.8457 -0.5134 4.5926 -12.7501 -2.9016 -3.8258 11.0759 -2.1443 -5.6275 -0.9685 0.3201 -2.6712 -7.1725 -1.3403 -2.4934 -17.3162 -1.9430 -1.7769 42.1938 -0.9907 -0.9773 19.0209 0.0000 0.0000 0.0000 -80.0706 -35.3506 53.9261 97.3427 -59.7953 -66.3546 -0.0000 0.0000 -24.3746 25.0242 10.1340 4.6956 -7.1250 0.0000 -0.0000 -1.7748 41.1321 0.1694 0.0000 0.0000 0.0000 65.2588 0.2145 42.5384 -32.7273 43.1194 -13.2353 0.0000 -0.0000 -13.3706 -31.7422 -0.4670 0.2889 7.1250 -0.0000 -0.0000 -4.1011 -30.5151 -1.4540
5.0183 18.0380 16.3661 5.8041 48.8007 5.8007 0.0000 0.0000 0.0000 -5.7289 -6.8398 -11.3040 18.5038 19.9462 85.6216 1.8027 -14.8060 -24.7245 1.1893 -6.9205 -19.4800 0.0000 0.0000 0.0000 17.6019 12.8415 -29.1008 -13.7236 -19.0280 71.3585 -6.3050 18.1760 -46.2871 -0.4940 4.5063 -12.5056 -3.0625 -3.8549 11.0710 -2.0293 -5.6783 -0.9509 0.5362 -2.6885 -7.1222 -1.4660 -2.6571 -17.1395 -2.0200 -1.9372 42.2079 -1.0336 -1.0667 18.9804 -0.0000 0.0000 0.0000 -80.8487 -34.8802 54.4527 97.8317 -59.7670 -66.7771 -0.0000 0.0000 -24.2841 25.0674 10.0394 4.6615 -7.1250 0.0000 -0.0000 -1.7268 41.0325 0.1690 -0.0000 0.0000 0.0000 65.1617 -0.4104 41.9688 -33.3167 43.5721 -13.6399 0.0000 -0.0000 -13.6664 -31.9113 -0.4776 0.2974 7.1250 -0.0000 -0.0000 -4.2355 -30.5276 -1.5006
4.9904 18.0799 16.7445 5.5701 49.7378 5.4071 0.0000 0.0000 0.0000 -6.1197 -6.0024 -12.7857 18.9229 19.9722 86.8493 2.1433 -14.5722 -26.7338 1.2140 -6.9894 -19.6841 0.0000 0.0000 0.0000 18.2913 12.2048 -28.3446 -13.4694 -18.9451 70.5773 -6.4326 17.7927 -46.7615 -0.4782 4.4349 -12.3034 -3.1411 -3.8344 11.1237 -1.9765 -5.6580 -0.9148 0.6339 -2.6748 -7.1008 -1.5494 -2.8575 -16.9582 -2.0394 -2.1954 42.2638 -1.0766 -1.1783 18.9638 0.0000 0.0000 0.0000 -81.5956 -34.4110 55.0746 98.2410 -59.7418 -67.1307 -0.0000 0.0000 -24.1578 24.6111 10.3355 4.6982 -7.1250 0.0000 -0.0000 -2.1630 41.3128 0.1968 0.0000 0.0000 0.0000 65.2294 -1.1682 41.2552 -33.9271 44.0307 -14.0624 0.0000 -0.0000 -13.9550 -31.9943 -0.4863 0.3038 7.1250 -0.0000 -0.0000 -4.3016 -30.5378 -1.5231
4.9683 18.1224 17.1213 5.1788 50.7076 4.8611 0.0000 0.0000 0.0000 -6.4013 -5.1014 -14.0707 19.1877 19.9842 87.6245 2.4519 -14.1435 -28.4445 1.2819 -7.1749 -20.2345 0.0000 0.0000 0.0000 19.0061 11.4342 -27.5860 -13.2083 -18.8561 69.7713 -6.5347 17.4890 -47.1417 -0.4423 4.2672 -11.8296 -3.0998 -3.8795 11.1805 -1.8832 -5.7060 -0.8586 0.7185 -2.6990 -7.0656 -1.6758 -3.0074 -16.8162 -2.0300 -2.3710 42.3209 -1.0820 -1.2611 18.9621 0.0000 0.0000 0.0000 -82.3534 -33.8471 55.5523 98.6087 -59.7181 -67.4483 -0.0000 0.0000 -24.1691 24.3814 10.6105 4.7705 -7.1250 0.0000 -0.0000 -2.3986 41.5903 0.2019 0.0000 0.0000 0.0000 65.2742 -1.8194 40.6531 -34.5302 44.4737 -14.4832 0.0000 -0.0000 -14.4987 -31.7889 -0.5251 0.3254 7.1250 -0.0000 -0.0000 -4.1408 -30.5833 -1.4614
4.9429 18.1606 17.5068 4.7599 51.5238 4.2894 0.0000 0.0000 0.0000 -6.5911 -4.0745 -15.1732 19.3008 19.9883 87.9552 2.6636 -13.8815 -29.5890 1.3037 -7.2333 -20.4083 0.0000 0.0000 0.0000 19.7430 10.9144 -26.8119 -12.9563 -18.7663 68.9898 -6.6514 17.0988 -47.5752 -0.4629 4.3641 -12.1034 -3.1727 -3.8166 11.1993 -1.8054 -5.6248 -0.8081 0.8260 -2.6566 -7.0093 -1.7310 -3.2093 -16.6331 -2.0385 -2.6481 42.3827 -1.1281 -1.3742 18.9484 -0.0000 0.0000 0.0000 -82.9664 -33.1848 56.1730 99.0936 -59.6852 -67.8669 -0.0000 0.0000 -24.3584 24.6050 10.6366 4.8315 -7.1250 0.0000 -0.0000 -2.2023 41.6406 0.1826 -0.0000 0.0000 0.0000 65.4117 -2.5953 40.0094 -35.0842 44.8721 -14.8727 0.0000 -0.0000 -14.7505 -32.0040 -0.6651 0.4156 7.1250 -0.0000 -0.0000 -4.3178 -30.7480 -1.5071
4.9204 18.1983 17.8923 4.2429 52.3182 3.6157 0.0000 0.0000 0.0000 -6.7354 -3.1144 -16.0154 19.2606 19.9869 87.8377 2.8200 -13.9244 -30.4390 1.3545 -7.3673 -20.8081 0.0000 0.0000 0.0000 20.4728 10.3763 -26.0536 -12.7059 -18.6734 68.2096 -6.7441 16.9974 -47.9262 -0.4305 4.2108 -11.6706 -3.2084 -3.8073 11.2252 -1.7024 -5.6086 -0.7529 0.9504 -2.6471 -6.9513 -1.8246 -3.3525 -16.4740 -2.0054 -2.8368 42.4630 -1.1304 -1.4532 18.9566 0.0000 0.0000 0.0000 -83.5073 -32.4365 56.6119 99.5189 -59.6548 -68.2340 -0.0000 0.0000 -24.4913 24.9417 10.7545 4.9599 -7.1250 0.0000 -0.0000 -1.9151 41.8030 0.1511 0.0000 0.0000 0.0000 65.5590 -3.2696 39.4880 -35.5941 45.2317 -15.2336 0.0000 -0.0000 -15.0886 -32.0337 -0.7597 0.4753 7.1250 -0.0000 -0.0000 -4.3458 -30.8594 -1.5053
4.8979 18.2337 18.2818 3.8948 53.1094 3.0415 0.0000 0.0000 0.0000 -7.0324 -2.3084 -16.5507 19.0730 19.9794 87.2888 2.9546 -13.9444 -31.1553 1.3531 -7.3637 -20.7975 0.0000 0.0000 0.0000 21.0327 9.7937 -25.3420 -12.4737 -18.5838 67.4826 -6.8395 16.6458 -48.2802 -0.4179 4.1492 -11.4967 -3.4113 -3.7939 11.1763 -1.6413 -5.6042 -0.6214 1.1158 -2.6418 -6.7577 -1.8560 -3.5104 -16.3660 -1.9582 -3.0845 42.4855 -1.1488 -1.5453 18.9406 0.0000 -0.0000 0.0000 -83.9661 -31.7855 56.9684 99.8448 -59.6306 -68.5153 -0.0000 0.0000 -24.5905 25.2473 10.7226 5.0142 -7.1250 0.0000 -0.0000 -1.6386 41.7988 0.1294 0.0000 -0.0000 0.0000 65.8336 -3.8525 38.8882 -36.0388 45.5398 -15.5502 0.0000 -0.0000 -15.3776 -32.2159 -0.8145 0.5132 7.1250 -0.0000 -0.0000 -4.4932 -30.9247 -1.5496
4.8771 18.2642 18.6708 3.6068 53.8857 2.5003 0.0000 0.0000 0.0000 -7.3699 -1.5850 -16.8935 18.7592 19.9630 86.3700 3.0850 -13.9634 -31.8369 1.3671 -7.4002 -20.9065 0.0000 0.0000 0.0000 21.4845 9.1621 -24.6737 -12.2523 -18.4953 66.7864 -6.9079 16.3917 -48.5346 -0.4070 4.0957 -11.3461 -3.6232 -3.7896 11.1992 -1.6246 -5.6220 -0.5460 1.2512 -2.6450 -6.6678 -1.8807 -3.6379 -16.2088 -1.9035 -3.2852 42.5846 -1.1557 -1.6149 18.9599 -0.0000 -0.0000 0.0000 -84.2818 -30.9447 57.2916 100.2911 -59.5960 -68.9003 -0.0000 0.0000 -24.7404 25.6309 10.7062 5.0933 -7.1250 0.0000 -0.0000 -1.2937 41.8195 0.1015 -0.0000 -0.0000 0.0000 66.1732 -4.5083 38.3556 -36.4422 45.8149 -15.8387 0.0000 -0.0000 -15.5253 -32.3314 -0.8636 0.5466 7.1250 -0.0000 -0.0000 -4.5874 -30.9831 -1.5758
